<?xml version="1.0" encoding="UTF-8"?><svg id="b" xmlns="http://www.w3.org/2000/svg" width="185.05" height="77.47" viewBox="0 0 185.05 77.47"><g id="c"><path d="M93.87,77.33v-7.18h1.72c1.22,0,2.41.27,3.11,1.07.83.94.94,2.05.94,2.46,0,1.1-.38,1.96-.93,2.56-.7.76-1.57,1.1-3.11,1.1h-1.73ZM95.63,76.09c.95,0,1.64-.25,2.07-.71.47-.5.61-1.15.61-1.62,0-.59-.21-1.17-.63-1.63-.44-.48-1.11-.74-2.09-.74h-.39v4.7h.43Z" fill="#051d41"/><path d="M106.07,77.47c-1.97,0-3.76-1.57-3.76-3.72,0-1.99,1.57-3.76,3.76-3.76s3.76,1.69,3.76,3.76-1.67,3.72-3.76,3.72ZM108.5,73.75c0-1.34-1.05-2.5-2.44-2.5s-2.42,1.15-2.42,2.5,1.06,2.48,2.43,2.48,2.43-1.16,2.43-2.48Z" fill="#051d41"/><path d="M120.02,73.79c0,.96-.38,1.91-1.15,2.63-.76.71-1.72,1.06-2.66,1.06-2,0-3.86-1.53-3.86-3.74,0-2.05,1.74-3.74,3.82-3.74,1.38,0,2.97.84,3.48,2.25h-1.59c-.42-.63-1.17-1.01-1.92-1.01-1.39,0-2.47,1.14-2.47,2.5,0,1.18.91,2.48,2.53,2.48.89,0,1.71-.5,2.13-1.32h-3.01v-1.24h4.69v.12Z" fill="#051d41"/><path d="M128.23,77.33v-5.94h-1.33v-1.24h4v1.24h-1.34v5.94h-1.33Z" fill="#051d41"/><path d="M136.73,77.33l-1.9-2.75h-.02v2.75h-1.33v-7.18h2.44c1.42,0,2.36,1.01,2.36,2.24,0,.67-.35,2-1.88,2.29l1.95,2.65h-1.61ZM135.7,73.58c.75,0,1.25-.4,1.25-1.11s-.56-1.09-1.25-1.09h-.88v2.19h.88Z" fill="#051d41"/><path d="M146.07,77.33l-.77-1.85h-2.57l-.77,1.85h-1.47l2.99-7.18h1.04l3.01,7.18h-1.47ZM144.01,72.02h-.02l-.82,2.2h1.65l-.82-2.2Z" fill="#051d41"/><path d="M150.25,77.33v-7.18h1.33v7.18h-1.33Z" fill="#051d41"/><path d="M159.24,77.33l-3-5.22h-.02v5.22h-1.33v-7.18h1.51l2.97,5.22h.02v-5.22h1.33v7.18h-1.49Z" fill="#051d41"/><path d="M164.03,77.33v-7.18h1.33v7.18h-1.33Z" fill="#051d41"/><path d="M173.02,77.33l-3-5.22h-.02v5.22h-1.33v-7.18h1.51l2.97,5.22h.02v-5.22h1.33v7.18h-1.48Z" fill="#051d41"/><path d="M185.05,73.79c0,.96-.38,1.91-1.15,2.63-.76.71-1.72,1.06-2.66,1.06-2,0-3.86-1.53-3.86-3.74,0-2.05,1.74-3.74,3.82-3.74,1.38,0,2.97.84,3.48,2.25h-1.59c-.42-.63-1.18-1.01-1.92-1.01-1.39,0-2.47,1.14-2.47,2.5,0,1.18.91,2.48,2.53,2.48.89,0,1.71-.5,2.13-1.32h-3.01v-1.24h4.69v.12Z" fill="#051d41"/><path d="M185.05,25.11v-10.43h-12.23V0h-12.23v14.67h-1.63c-6.83,0-12.58,2.66-16.6,6.95-4.44-5.2-11.17-8.51-18.7-8.51-9.28,0-17.34,5.03-21.41,12.42-3.61-6.52-10.22-10.86-18.94-10.86-6.36,0-12.07,2.85-15.9,7.42-3.83-4.57-9.54-7.42-15.9-7.42-7.46,0-13.38,3.18-17.2,8.19-2.45-6.05-8.96-9.49-16.39-9.49C8.48,13.37.49,18.91.49,27.88c0,6.93,8.23,12.15,16.79,13.21,3.67.49,6.36,2.36,6.36,4.4,0,2.85-3.02,4.24-5.71,4.24s-5.71-.98-5.71-4.73H0c0,9.46,8.48,15,17.94,15,4.3,0,8.39-1.16,11.58-3.3v3.3h12.23v-.08c-.06-.01-.12,0-.18-.03-6.88-2.44-11.13-6.4-12.99-12.09-.26-.79.17-1.64.97-1.9.79-.26,1.64.17,1.9.97,1.5,4.58,4.78,7.73,10.3,9.87v-18.74c0-6.77,3.02-12.23,9.78-12.23s9.78,5.46,9.78,12.23v22.01h12.23v-22.01c0-6.77,3.02-12.23,9.78-12.23s9.78,5.46,9.78,12.23v21.67c2.45-2.07,4.76-4.56,6.88-7.43,1.96-2.65,3.14-4.8,3.56-5.6,1.58-3.02,3.81-8.73,5.41-13,1.87-5,3.43-9.51,3.82-10.71.06-.18.22-.3.4-.31.18,0,.36.1.43.27l2.48,5.72,3.08-3.49c.11-.13.29-.18.46-.14.17.05.29.18.32.36l1.13,6.29c2.95.13,5.32,2.64,5.32,5.71,0,.16,0,.33-.03.52l.04.03,7.21,4.69c.46.3.68.88.53,1.41-1.22,4.25-3.2,6.58-7.3,8.61-.74.37-1.56.56-2.37.56h-3.19l-1.47,6.3c1.25.19,2.54.3,3.85.3,5.09,0,9.66-2.49,12.47-6.31v6.57h12.23v-22.01c0-6.77,5.46-12.23,12.23-12.23v10.92c0,12.88,9.29,23.31,22.83,23.31h1.63v-11.09c-6.77,0-12.23-5.46-12.23-12.23v-11.58h12.23ZM29.68,34.95c-2.08-1.18-4.48-1.91-6.85-2.18-4.73-.57-10.11-2.61-10.11-5.22,0-2.94,2.53-3.91,5.22-3.91s5.22.98,5.22,4.73h8.11c-.8,2.05-1.33,4.26-1.58,6.58Z" fill="#051d41"/><circle cx="122.08" cy="35.88" r="1.24" fill="#051d41"/></g></svg>